<svg xmlns="http://www.w3.org/2000/svg" viewBox="0 0 64 64">
  <rect width="64" height="64" rx="14" fill="#5B21B6"/>
  <rect x="21" y="6" width="22" height="19" rx="6" fill="none" stroke="white" stroke-width="2.8"/>
  <circle cx="27.5" cy="14" r="2.2" fill="white"/>
  <circle cx="36.5" cy="14" r="2.2" fill="white"/>
  <path d="M26 20 Q32 25 38 20" fill="none" stroke="white" stroke-width="2.2" stroke-linecap="round"/>
  <line x1="32" y1="25" x2="32" y2="44" stroke="white" stroke-width="2.8" stroke-linecap="round"/>
  <line x1="8" y1="31" x2="56" y2="31" stroke="white" stroke-width="2.8" stroke-linecap="round"/>
  <line x1="32" y1="44" x2="21" y2="58" stroke="white" stroke-width="2.8" stroke-linecap="round"/>
  <line x1="32" y1="44" x2="43" y2="58" stroke="white" stroke-width="2.8" stroke-linecap="round"/>
  <line x1="8" y1="31" x2="8" y2="20" stroke="white" stroke-width="2" stroke-linecap="round"/>
  <line x1="5.5" y1="20" x2="5.5" y2="15" stroke="white" stroke-width="1.5" stroke-linecap="round"/>
  <line x1="8" y1="20" x2="8" y2="15" stroke="white" stroke-width="1.5" stroke-linecap="round"/>
  <line x1="10.5" y1="20" x2="10.5" y2="15" stroke="white" stroke-width="1.5" stroke-linecap="round"/>
  <line x1="56" y1="31" x2="56" y2="37" stroke="white" stroke-width="2" stroke-linecap="round"/>
  <ellipse cx="56" cy="25" rx="3.5" ry="4.5" fill="none" stroke="white" stroke-width="2"/>
</svg>
